<?xml version="1.0" encoding="UTF-8"?>
<svg width="16px" height="16px" viewBox="0 0 16 16" version="1.1" xmlns="http://www.w3.org/2000/svg" xmlns:xlink="http://www.w3.org/1999/xlink">
    <!-- Generator: Sketch 57.1 (83088) - https://sketch.com -->
    <title>Favicon</title>
    <desc>Created with Sketch.</desc>
    <g id="Favicon" stroke="none" stroke-width="1" fill="none" fill-rule="evenodd">
        <g id="Group" transform="translate(2.000000, 0.000000)" fill="#B7222C">
            <path d="M3.4487917,5.79746218 L4.03209696,5.77483673 C4.03209696,5.77483673 4.06945972,5.20132582 3.66471502,4.54685127 C3.66471502,4.54685127 3.35209463,4.02114218 2.93831595,3.68431127 C2.93831595,3.68431127 2.57271851,3.34714764 2.00480448,2.95963127 C2.00480448,2.95963127 1.69430317,2.76498582 1.37075278,2.55891673 C1.37075278,2.55891673 0.754434454,2.21010764 0.0498953897,1.693604 C0.0498953897,1.693604 -0.0734575003,2.29473127 0.0677402924,2.90495309 C0.0677402924,2.90495309 0.375676395,4.42562764 1.4792721,4.94224218 L1.6878344,4.40233673 C1.6878344,4.40233673 1.01273942,4.15123855 0.648591875,2.82609673 C0.648591875,2.82609673 1.40588493,3.24633127 1.95773855,3.65503127 C1.95773855,3.65503127 2.71514314,4.19804218 3.04371241,4.67084764 C3.04371241,4.67084764 3.4254818,5.13200764 3.4487917,5.79746218" id="Fill-32"></path>
            <path d="M5.73167895,10.2537451 L6.13240855,9.86622873 C6.13240855,9.86622873 5.9407989,9.64296873 5.65918403,9.64740509 C5.65918403,9.64740509 5.33976027,9.625556 5.07353663,10.0414651 C5.07353663,10.0414651 4.76972716,10.5316833 4.63321366,11.0133615 C4.63321366,11.0133615 4.45275708,11.6262451 4.32048174,12.1735815 C4.32048174,12.1735815 4.14002516,12.9224396 4.02124503,13.6577669 C4.02124503,13.6577669 3.94172368,14.1305724 3.8802703,14.6427505 C3.8802703,14.6427505 3.81000599,15.1726742 3.81000599,15.4265451 L4.38238125,15.5272505 C4.38238125,15.5272505 4.61124212,14.6845633 4.7476441,14.2771942 C4.7476441,14.2771942 4.84445269,13.9971487 4.96345589,13.6534415 C4.96345589,13.6534415 5.12417154,13.1478069 5.26503474,12.6619142 C5.26503474,12.6619142 5.4632247,11.9961269 5.53995778,11.2805415 C5.53995778,11.2805415 5.59092728,10.9302905 5.53594267,10.4048033 L5.68305159,10.2361105 L5.73167895,10.2537451 Z" id="Fill-36"></path>
            <path d="M8.93459362,3.23333273 L9.11939989,3.74983636 C9.11939989,3.74983636 9.38361598,3.73242364 9.60812716,3.40834727 C9.60812716,3.40834727 9.94071154,2.98600545 10.1719146,2.34883273 C10.1719146,2.34883273 10.3810345,1.79062727 10.4799622,1.34188909 C10.4799622,1.34188909 10.6296363,0.759505455 10.7309061,0.207954545 L10.1871943,8.43769499e-15 C10.1871943,8.43769499e-15 9.94506123,0.363449091 9.77118496,0.632514545 C9.77118496,0.632514545 9.36610567,1.20846545 9.09765142,1.65709273 C9.09765142,1.65709273 8.76294796,2.16949273 8.45913849,2.69054364 C8.45913849,2.69054364 8.12889626,3.24209455 7.8691414,3.78943091 C7.8691414,3.78943091 7.65355267,4.19214182 7.47755731,4.8312 C7.47755731,4.8312 7.40260872,5.11590364 7.40695842,5.36999636 C7.40695842,5.36999636 7.42904148,5.69828727 7.53031131,5.83392909 C7.53031131,5.83392909 7.65812542,6.07914909 8.06733135,6.22366364 L8.1992721,5.64571636 C8.1992721,5.64571636 7.97487244,5.63262909 7.98803306,5.36112364 C7.98803306,5.36112364 8.04078705,4.84007273 8.25671038,4.36305273 C8.25671038,4.36305273 8.5472477,3.69305091 8.7849195,3.28801091 C8.7849195,3.28801091 9.19434848,2.59627091 9.3924269,2.26997636 L9.76683527,1.69657636 C9.76683527,1.69657636 9.60400053,2.17814364 9.47841703,2.45608182 C9.47841703,2.45608182 9.39923027,2.62255636 9.23182278,2.9158 C9.23182278,2.9158 9.10200111,3.15447636 8.93459362,3.23333273" id="Fill-38"></path>
            <path d="M7.45103533,8.53955636 L7.36292612,8.64037273 L7.42895226,8.69294364 L7.45103533,9.00803636 L7.67108528,8.90733091 C7.67108528,8.90733091 8.19951746,9.37148545 8.65300105,9.69556182 C8.65300105,9.69556182 9.24288662,10.1377564 9.82407279,10.4486345 C9.82407279,10.4486345 10.2422012,10.6761091 10.7222291,10.7418782 C10.7222291,10.7418782 11.1654518,10.7944491 11.3739026,10.4178018 C11.3739026,10.4178018 11.5103046,10.1508436 11.457439,9.91449636 C11.457439,9.91449636 11.4224184,9.50280182 11.0700931,9.19203455 C11.0700931,9.19203455 10.745762,8.85354 10.0880658,8.59212727 C10.0880658,8.59212727 9.60402284,8.36454182 8.65300105,8.21126545 C8.65300105,8.21126545 8.26532054,8.14993273 7.83380849,8.16546 L8.27636208,8.75205818 C8.27636208,8.75205818 9.01837544,8.83945455 9.69648174,9.07613455 C9.69648174,9.07613455 10.2210103,9.24959636 10.5262697,9.50069455 C10.5262697,9.50069455 10.8691149,9.74369636 10.8691149,9.98603273 C10.8691149,9.98603273 10.8691149,10.0734291 10.8454704,10.1398636 C10.8454704,10.1398636 10.7793327,10.2143945 10.5285003,10.1072564 C10.5285003,10.1072564 10.228929,10.0034455 9.85340535,9.77574909 C9.85340535,9.77574909 9.06677973,9.30216727 8.65300105,8.96644545 C8.65300105,8.96644545 8.60635337,8.91949217 8.40091393,8.76776854 L8.27636208,8.75205818 L7.83380849,8.16546 C7.83380849,8.16546 7.63160343,8.17056182 7.35857642,8.22435273 L7.45103533,8.53955636 Z" id="Fill-41"></path>
            <path d="M5.63845049,0.701278182 L6.35180047,1.79584 C6.35180047,1.79584 6.69520332,2.31533818 6.68929219,2.86688909 C6.68929219,2.86688909 6.73914639,3.44206364 6.41325386,3.91198545 C6.41325386,3.91198545 6.20502615,4.24460182 5.96423149,4.45189091 C5.96423149,4.45189091 5.70536887,4.69999455 5.39263695,4.69999455 C5.39263695,4.69999455 5.09998055,4.72195455 4.83732589,4.41107636 C4.83732589,4.41107636 4.59943103,4.16308364 4.45711793,3.60975818 C4.45711793,3.60975818 4.36465903,3.15891273 4.35807872,2.74078545 C4.35807872,2.74078545 4.34112606,2.34439636 4.36187076,1.90087091 C4.36187076,1.90087091 4.37581209,1.55849455 4.49682284,1.24118364 C4.49682284,1.24118364 4.58247837,0.998181818 4.73215249,0.831707273 C4.73215249,0.831707273 4.87546937,0.682978182 5.07354779,0.674312407 C5.07354779,0.674312407 5.30240866,0.669890909 5.46301279,0.814294545 L5.35728174,1.62637091 C5.35728174,1.62637091 5.23649405,1.42296364 5.16377608,1.31360727 C5.16377608,1.31360727 5.14626576,1.28732182 5.10644933,1.29586182 C5.06574064,1.30495636 5.04020012,1.44692 5.02726257,1.49960182 C5.00294889,1.5982 5.00573716,1.57113818 4.98108888,1.70090182 C4.95688673,1.82789273 4.93926489,1.97018909 4.93257305,2.14742182 C4.93257305,2.14742182 4.93257305,2.70130182 4.96759368,2.98811273 C4.96759368,2.98811273 5.02503196,3.76968909 5.38839879,4.09576182 C5.38839879,4.09576182 5.46970463,4.14167818 5.57755476,3.99727455 C5.57755476,3.99727455 5.97605374,3.67319818 6.08189632,3.19407091 C6.08189632,3.19407091 6.13007756,3.02970364 6.09282632,2.76928909 C6.09282632,2.76928909 6.02903079,2.36846364 5.7360398,1.90464182 L5.54688383,1.99858182 L5.35728174,1.62637091 L5.46301279,0.814294545 L5.63845049,0.701278182 Z" id="Fill-34"></path>
        </g>
    </g>
</svg>